<?xml version="1.0" standalone="no"?>
<!DOCTYPE svg PUBLIC "-//W3C//DTD SVG 20010904//EN"
 "http://www.w3.org/TR/2001/REC-SVG-20010904/DTD/svg10.dtd">
<svg version="1.0" xmlns="http://www.w3.org/2000/svg"
 width="55px" height="55px" viewBox="0 0 502.000000 497.000000"
 preserveAspectRatio="xMidYMid meet">

<g transform="translate(0.000000,497.000000) scale(0.100000,-0.100000)"
fill="#000000" stroke="none">
<path d="M2190 4935 c-412 -57 -804 -209 -1130 -438 -315 -222 -595 -543 -774
-888 -136 -262 -206 -488 -257 -824 -18 -116 -15 -485 4 -620 78 -554 312
-1028 697 -1416 411 -415 944 -663 1540 -720 190 -18 500 -6 674 25 271 49
440 103 661 211 263 128 443 254 648 454 222 216 372 422 502 686 118 240 198
515 234 805 14 106 14 414 1 540 -33 313 -135 638 -286 911 -389 704 -1089
1175 -1893 1275 -143 17 -490 17 -621 -1z m690 -869 c52 -8 127 -24 165 -36
82 -25 465 -209 465 -224 0 -15 -216 -226 -282 -275 l-56 -42 -109 54 c-211
106 -375 149 -568 149 -143 0 -244 -23 -344 -79 -83 -46 -170 -134 -207 -210
-26 -51 -29 -69 -29 -153 0 -84 3 -102 28 -152 77 -157 236 -248 778 -443 422
-152 602 -246 732 -385 79 -84 147 -195 184 -305 26 -73 28 -92 27 -225 0
-132 -3 -152 -27 -220 -155 -427 -658 -666 -1303 -620 -324 23 -544 86 -834
239 -102 54 -170 106 -170 130 0 4 57 57 126 117 69 60 144 126 168 147 l43
38 194 -96 c215 -106 311 -136 496 -156 333 -36 620 69 719 262 22 43 28 71
32 140 5 105 -12 166 -68 240 -88 118 -241 199 -627 334 -424 147 -558 208
-702 315 -407 306 -464 813 -128 1153 179 181 383 270 732 321 67 10 474 -3
565 -18z"/>
</g>
</svg>
